<svg id="svg" version="1.1" width="400" height="396" xmlns="http://www.w3.org/2000/svg" xmlns:xlink="http://www.w3.org/1999/xlink" style="display: block;"><g id="svgg"><path id="path0" d="M187.000 9.931 C 185.625 10.390,178.662 11.297,171.526 11.947 C 164.390 12.596,158.090 13.474,157.526 13.898 C 156.962 14.323,153.800 15.216,150.500 15.885 C 147.200 16.553,142.925 17.711,141.000 18.459 C 139.075 19.206,134.350 21.024,130.500 22.498 C 122.492 25.565,117.378 27.743,114.500 29.313 C 113.400 29.912,111.150 31.109,109.500 31.972 C 103.239 35.245,93.347 41.444,89.500 44.506 C 87.300 46.257,84.956 47.872,84.291 48.095 C 82.673 48.637,64.608 65.016,63.100 67.308 C 61.865 69.186,64.191 77.988,67.553 84.154 C 68.349 85.614,69.003 87.639,69.006 88.654 C 69.010 89.669,69.646 91.715,70.420 93.199 C 71.195 94.683,72.585 98.508,73.509 101.699 C 74.433 104.890,75.531 107.950,75.949 108.500 C 76.367 109.050,77.323 111.638,78.073 114.250 C 78.823 116.862,79.738 119.000,80.107 119.000 C 80.476 119.000,81.055 120.463,81.394 122.250 C 81.733 124.037,82.596 126.625,83.310 128.000 C 84.025 129.375,85.222 132.750,85.971 135.500 C 86.719 138.250,87.932 141.388,88.666 142.473 C 89.400 143.557,90.015 145.132,90.034 145.973 C 90.053 146.813,90.937 149.300,92.000 151.500 C 93.063 153.700,93.947 156.107,93.966 156.849 C 93.985 157.591,94.618 159.616,95.374 161.349 C 96.130 163.082,97.306 166.521,97.987 168.992 C 98.668 171.462,99.849 174.375,100.613 175.464 C 101.376 176.554,102.000 178.139,102.000 178.987 C 102.000 179.836,102.900 182.209,104.000 184.261 C 105.100 186.314,106.000 188.415,106.000 188.931 C 106.000 189.447,106.530 191.137,107.177 192.685 C 107.824 194.233,109.078 197.750,109.962 200.500 C 112.753 209.174,114.397 207.128,114.521 194.826 C 114.581 188.955,115.078 183.555,115.627 182.826 C 116.175 182.097,117.216 179.025,117.941 176.000 C 118.665 172.975,119.603 170.050,120.026 169.500 C 120.448 168.950,121.361 166.588,122.055 164.250 C 122.749 161.912,123.665 160.000,124.091 160.000 C 124.517 160.000,125.181 158.987,125.567 157.750 C 125.954 156.512,128.009 153.413,130.135 150.861 C 132.261 148.310,134.000 145.820,134.000 145.327 C 134.000 144.255,144.240 134.000,145.311 134.000 C 145.722 134.000,148.336 132.200,151.119 130.000 C 153.902 127.800,156.792 126.000,157.540 126.000 C 158.288 126.000,159.260 125.438,159.700 124.750 C 160.669 123.236,168.340 120.312,176.500 118.346 C 179.800 117.551,183.882 116.473,185.571 115.950 C 189.875 114.618,210.711 114.723,211.550 116.081 C 212.305 117.303,363.868 116.818,365.860 115.587 C 367.474 114.589,367.276 111.043,365.570 110.388 C 364.783 110.087,363.663 108.638,363.081 107.170 C 362.498 105.701,360.224 101.800,358.026 98.500 C 355.828 95.200,353.236 91.207,352.265 89.628 C 349.072 84.432,333.164 65.910,328.610 62.087 C 327.570 61.214,324.420 58.402,321.610 55.838 C 318.799 53.273,314.700 49.814,312.500 48.151 C 310.300 46.487,307.712 44.423,306.750 43.563 C 305.788 42.703,304.611 42.000,304.135 42.000 C 303.659 42.000,302.132 41.105,300.741 40.011 C 296.825 36.931,274.034 25.384,269.000 23.930 C 266.525 23.215,263.612 22.039,262.527 21.315 C 261.443 20.592,259.643 19.997,258.527 19.994 C 257.412 19.990,255.279 19.351,253.787 18.572 C 252.295 17.794,248.470 16.648,245.287 16.027 C 242.104 15.405,238.600 14.476,237.500 13.964 C 232.035 11.416,192.099 8.227,187.000 9.931 M226.308 45.104 C 230.264 45.711,233.950 46.571,234.500 47.015 C 235.050 47.458,237.300 48.151,239.500 48.555 C 241.700 48.959,244.530 50.091,245.789 51.070 C 247.589 52.469,249.837 52.829,256.289 52.753 C 269.115 52.602,269.958 53.266,269.986 63.528 C 269.997 67.307,270.497 68.981,272.000 70.268 C 274.555 72.456,274.716 77.833,272.250 78.624 C 271.288 78.933,268.700 80.047,266.500 81.100 C 264.300 82.153,261.277 83.108,259.782 83.223 C 257.673 83.384,256.922 84.077,256.430 86.317 C 254.257 96.214,240.955 96.899,235.390 87.402 C 233.919 84.893,232.434 83.298,232.088 83.858 C 231.688 84.504,219.209 84.989,197.827 85.187 L 164.195 85.500 163.671 81.587 C 162.162 70.322,148.590 64.228,141.066 71.437 C 139.380 73.052,138.000 74.927,138.000 75.604 C 138.000 76.280,137.469 77.010,136.820 77.227 C 136.117 77.461,135.925 78.363,136.346 79.460 C 136.961 81.061,137.511 80.762,140.604 77.150 C 148.197 68.278,160.842 72.888,159.761 84.134 C 158.583 96.391,141.101 97.844,138.479 85.903 C 137.799 82.810,137.039 82.361,135.348 84.052 C 133.141 86.259,121.537 84.762,121.177 82.224 C 120.999 80.972,120.247 78.778,119.506 77.348 C 117.309 73.113,122.468 66.839,130.069 64.502 C 131.406 64.091,132.958 63.392,133.519 62.947 C 134.079 62.503,137.454 61.679,141.019 61.116 C 144.583 60.553,149.075 59.824,151.000 59.495 C 152.925 59.167,157.941 58.520,162.148 58.057 C 168.276 57.383,171.057 56.472,176.148 53.471 C 179.641 51.412,184.075 48.809,186.000 47.688 C 192.181 44.087,211.584 42.843,226.308 45.104 M197.583 46.865 C 197.289 47.341,195.544 47.975,193.704 48.273 C 191.865 48.572,188.641 49.982,186.541 51.408 C 184.440 52.834,182.109 54.000,181.360 54.000 C 180.612 54.000,180.000 54.675,180.000 55.500 C 180.000 57.469,208.850 57.750,210.800 55.800 C 212.274 54.326,212.354 50.530,210.965 47.934 C 209.864 45.878,198.742 44.990,197.583 46.865 M215.614 48.816 C 213.431 52.347,216.234 56.000,221.125 56.000 C 229.715 56.000,227.951 50.783,218.565 48.427 C 217.274 48.103,215.946 48.278,215.614 48.816 M239.750 69.299 C 238.238 69.897,237.000 70.826,237.000 71.364 C 237.000 71.902,236.360 73.053,235.578 73.921 C 231.519 78.427,232.669 81.621,236.776 77.250 C 242.807 70.831,252.466 71.474,255.979 78.529 C 257.406 81.394,257.471 81.417,257.808 79.177 C 258.925 71.760,248.272 65.932,239.750 69.299 M39.890 96.128 C 39.170 97.433,37.817 99.850,36.885 101.500 C 29.794 114.052,23.429 128.865,20.341 140.000 C 19.502 143.025,18.452 145.950,18.006 146.500 C 17.561 147.050,16.658 151.100,16.000 155.500 C 15.342 159.900,14.449 163.950,14.015 164.500 C 10.866 168.495,10.806 225.023,13.945 231.033 C 14.386 231.876,15.294 235.812,15.963 239.780 C 16.632 243.747,17.589 247.246,18.090 247.555 C 18.590 247.865,19.000 249.253,19.000 250.641 C 19.000 256.727,30.671 284.984,37.190 294.680 C 38.735 296.979,40.000 299.201,40.000 299.618 C 40.000 300.035,42.025 302.953,44.500 306.103 C 46.975 309.254,49.000 312.157,49.000 312.555 C 49.000 313.430,58.597 324.537,65.500 331.650 C 75.511 341.968,86.271 350.612,99.805 359.213 C 105.328 362.722,128.146 373.613,135.000 376.010 C 136.925 376.684,139.850 377.823,141.500 378.542 C 143.150 379.261,147.209 380.155,150.521 380.528 L 156.542 381.207 160.021 376.983 C 161.934 374.659,166.313 369.473,169.750 365.458 C 173.188 361.443,176.000 357.781,176.000 357.320 C 176.000 356.858,176.900 355.919,178.000 355.232 C 179.100 354.545,180.000 353.493,180.000 352.895 C 180.000 352.296,182.745 348.813,186.101 345.153 C 189.457 341.494,193.372 336.475,194.802 334.000 C 196.233 331.525,199.500 327.025,202.064 324.000 C 204.628 320.975,207.125 317.757,207.613 316.849 C 208.524 315.154,212.907 309.976,221.242 300.749 C 223.850 297.862,225.987 295.143,225.992 294.707 C 225.996 294.270,229.600 289.704,234.000 284.560 C 244.077 272.779,244.515 269.798,235.622 273.513 C 233.630 274.346,232.000 275.381,232.000 275.813 C 232.000 276.246,229.188 277.180,225.750 277.889 C 222.313 278.597,219.042 279.556,218.482 280.019 C 214.709 283.137,180.920 283.361,176.707 280.295 C 176.043 279.812,173.700 278.835,171.500 278.123 C 161.541 274.900,147.431 266.894,141.500 261.099 C 129.913 249.778,128.350 247.381,116.650 222.999 C 113.615 216.673,109.761 209.473,108.084 206.999 C 106.408 204.524,105.028 201.938,105.018 201.250 C 105.008 200.563,104.622 200.000,104.160 200.000 C 103.698 200.000,102.726 198.200,102.000 196.000 C 101.274 193.800,100.354 192.000,99.957 192.000 C 99.559 192.000,98.964 191.212,98.635 190.250 C 98.305 189.287,96.680 186.250,95.023 183.500 C 93.366 180.750,91.238 176.925,90.294 175.000 C 89.351 173.075,88.057 170.825,87.419 170.000 C 86.255 168.495,82.150 161.360,78.906 155.204 C 77.951 153.392,76.736 151.367,76.207 150.704 C 75.678 150.042,73.468 146.125,71.297 142.000 C 69.125 137.875,66.145 132.596,64.674 130.270 C 63.203 127.943,62.000 125.621,62.000 125.110 C 62.000 124.598,60.313 121.982,58.250 119.296 C 54.359 114.228,53.866 113.449,48.256 103.500 C 43.220 94.568,41.560 93.106,39.890 96.128 M230.487 120.021 C 230.140 120.582,231.507 121.732,233.524 122.574 C 242.538 126.341,257.395 137.842,262.500 145.006 C 264.150 147.321,266.175 149.994,267.000 150.946 C 277.996 163.627,285.118 195.580,281.167 214.500 C 279.775 221.165,276.748 231.376,275.979 232.000 C 275.640 232.275,274.588 234.465,273.642 236.867 C 272.697 239.269,268.790 245.911,264.961 251.627 C 261.133 257.343,258.000 262.272,258.000 262.580 C 258.000 262.888,256.650 265.102,255.000 267.500 C 253.350 269.898,252.000 272.094,252.000 272.380 C 252.000 272.666,250.705 274.835,249.122 277.200 C 247.539 279.565,244.925 283.975,243.312 287.000 C 241.700 290.025,239.092 294.525,237.517 297.000 C 235.941 299.475,233.072 304.425,231.139 308.000 C 225.851 317.784,222.955 322.962,218.000 331.488 C 215.525 335.748,212.210 341.768,210.633 344.866 C 209.057 347.965,206.615 352.750,205.208 355.500 C 203.800 358.250,201.596 362.615,200.309 365.200 C 199.023 367.785,197.527 370.175,196.985 370.509 C 196.443 370.844,195.986 372.104,195.969 373.309 C 195.952 374.514,194.829 377.300,193.474 379.500 C 189.040 386.699,189.401 387.000,202.441 387.000 C 208.990 387.000,214.146 386.572,214.500 386.000 C 214.840 385.450,216.917 385.000,219.116 385.000 C 224.247 385.000,237.031 383.101,239.060 382.038 C 239.917 381.589,243.266 380.671,246.500 380.000 C 249.734 379.329,253.083 378.388,253.940 377.909 C 254.798 377.431,258.079 376.326,261.232 375.454 C 264.384 374.582,267.223 373.448,267.541 372.934 C 267.858 372.420,268.765 372.000,269.556 372.000 C 271.408 372.000,283.777 366.169,284.539 364.937 C 284.857 364.422,285.776 364.000,286.580 364.000 C 287.385 364.000,289.946 362.799,292.271 361.330 C 302.278 355.013,304.583 353.492,306.000 352.275 C 306.825 351.566,309.811 349.301,312.634 347.243 C 315.458 345.184,321.005 340.462,324.959 336.750 C 328.914 333.037,332.566 330.000,333.075 330.000 C 333.584 330.000,334.000 329.550,334.000 329.000 C 334.000 328.450,334.788 327.188,335.750 326.196 C 341.714 320.048,348.600 311.939,350.776 308.500 C 352.168 306.300,354.588 302.935,356.154 301.022 C 357.719 299.109,359.000 297.120,359.000 296.601 C 359.000 296.082,359.628 294.947,360.396 294.079 C 362.322 291.900,372.000 272.903,372.000 271.301 C 372.000 270.586,372.388 270.000,372.863 270.000 C 373.338 270.000,374.525 267.413,375.501 264.250 C 376.477 261.087,377.621 258.050,378.044 257.500 C 378.466 256.950,379.369 253.575,380.049 250.000 C 380.730 246.425,381.652 243.028,382.098 242.452 C 382.545 241.875,383.431 236.250,384.067 229.952 C 384.704 223.653,385.648 217.586,386.165 216.468 C 388.294 211.865,384.873 162.780,382.083 157.897 C 381.579 157.015,380.851 154.187,380.464 151.611 C 379.492 145.128,377.528 143.112,371.500 142.411 C 368.750 142.092,365.825 141.563,365.000 141.237 C 363.341 140.581,347.711 137.995,330.000 135.448 C 323.675 134.538,317.600 133.410,316.500 132.942 C 315.400 132.473,309.550 131.405,303.500 130.567 C 275.854 126.741,269.366 125.726,267.500 124.938 C 266.400 124.474,259.425 123.357,252.000 122.456 C 244.575 121.555,238.072 120.409,237.550 119.909 C 236.262 118.676,231.269 118.755,230.487 120.021 M188.525 127.683 C 185.789 127.928,183.059 128.536,182.457 129.036 C 181.856 129.535,179.032 130.443,176.182 131.054 C 173.332 131.666,171.000 132.578,171.000 133.083 C 171.000 133.587,170.415 134.000,169.699 134.000 C 167.860 134.000,163.017 136.352,163.008 137.250 C 163.004 137.662,162.397 138.000,161.661 138.000 C 156.851 138.000,139.595 155.959,134.208 166.571 C 120.308 193.954,124.633 224.676,145.912 249.723 C 148.840 253.170,160.170 262.000,161.664 262.000 C 162.399 262.000,163.000 262.340,163.000 262.756 C 163.000 263.172,164.463 264.117,166.250 264.857 C 168.037 265.596,171.055 266.896,172.955 267.745 C 175.652 268.950,191.617 271.065,197.500 270.997 C 205.686 270.902,221.274 268.980,224.000 267.730 C 225.925 266.847,229.075 265.431,231.000 264.582 C 237.750 261.606,255.872 246.136,256.041 243.206 C 256.063 242.817,257.413 240.942,259.041 239.038 C 260.668 237.134,261.999 235.109,261.997 234.538 C 261.996 233.967,262.967 231.475,264.155 229.000 C 265.343 226.525,266.649 223.791,267.057 222.925 C 270.428 215.763,270.789 186.292,267.583 179.866 C 266.712 178.121,266.000 176.235,266.000 175.675 C 266.000 171.999,257.346 157.361,252.250 152.417 C 250.463 150.683,249.000 148.754,249.000 148.132 C 249.000 147.509,248.347 147.000,247.550 147.000 C 246.752 147.000,245.740 146.366,245.300 145.590 C 239.409 135.205,209.582 125.797,188.525 127.683 M226.000 159.466 C 226.000 161.496,222.810 168.000,221.815 168.000 C 221.367 168.000,221.000 168.662,221.000 169.471 C 221.000 171.226,210.748 176.302,208.249 175.784 C 203.864 174.876,209.433 163.410,215.927 159.977 C 220.321 157.654,226.000 157.366,226.000 159.466 M335.634 163.488 C 336.310 165.251,334.209 174.645,332.499 177.500 C 330.185 181.365,331.801 188.493,336.098 193.374 C 338.244 195.812,340.000 198.075,340.000 198.403 C 340.000 198.732,340.678 199.787,341.507 200.750 C 342.335 201.713,345.399 205.425,348.314 209.000 C 351.623 213.057,354.805 215.891,356.780 216.542 C 361.257 218.015,365.904 221.677,367.283 224.819 C 367.930 226.294,368.862 227.786,369.354 228.136 C 370.708 229.098,370.567 241.833,369.187 243.213 C 368.534 243.866,367.986 245.098,367.968 245.950 C 367.900 249.315,359.453 256.000,355.270 256.000 C 354.487 256.000,350.844 258.858,347.173 262.352 C 343.503 265.846,337.226 271.780,333.225 275.540 L 325.951 282.376 326.604 289.587 C 327.769 302.439,322.712 315.000,316.373 315.000 C 315.618 315.000,315.000 315.450,315.000 316.000 C 315.000 318.796,299.661 316.164,298.512 313.171 C 296.891 308.946,301.894 306.109,307.432 308.112 C 311.433 309.558,316.650 306.676,319.448 301.472 C 322.531 295.738,318.289 292.544,312.124 295.959 C 310.312 296.962,305.565 294.534,303.025 291.304 C 299.561 286.901,300.723 273.627,304.878 270.138 C 306.278 268.961,305.845 268.843,301.709 269.269 C 296.582 269.798,293.000 272.195,293.000 275.096 C 293.000 276.078,292.550 277.160,292.000 277.500 C 291.450 277.840,290.994 279.554,290.986 281.309 C 290.963 286.795,289.965 289.000,287.506 289.000 C 284.342 289.000,282.627 286.584,283.428 283.256 C 283.793 281.740,284.559 278.267,285.130 275.538 C 286.385 269.535,291.086 263.280,295.831 261.297 C 299.938 259.581,308.841 260.421,309.678 262.604 C 309.973 263.372,310.841 264.000,311.607 264.000 C 312.373 264.000,313.000 264.450,313.000 265.000 C 313.000 268.766,326.627 257.156,336.159 245.269 C 339.800 240.729,339.774 233.957,336.097 229.001 C 334.668 227.076,333.166 225.051,332.759 224.501 C 326.842 216.510,319.273 208.315,317.166 207.616 C 309.801 205.176,303.543 199.748,302.472 194.872 C 302.121 193.275,300.720 191.188,299.359 190.234 C 291.992 185.073,286.818 178.348,285.531 172.261 C 285.154 170.480,284.431 168.766,283.923 168.452 C 282.557 167.608,282.803 163.246,284.250 162.662 C 287.728 161.259,335.070 162.020,335.634 163.488 M314.733 178.632 C 307.062 182.651,308.990 196.000,317.242 196.000 C 322.351 196.000,326.057 188.748,323.597 183.564 C 321.238 178.593,318.120 176.857,314.733 178.632 M210.226 187.560 C 210.822 188.156,205.645 198.481,203.488 201.000 C 201.129 203.754,196.260 213.539,195.506 217.041 C 195.097 218.943,193.408 222.520,191.754 224.989 C 188.127 230.400,186.982 236.395,189.397 237.322 C 191.228 238.025,195.469 236.667,196.462 235.062 C 196.823 234.478,197.555 234.000,198.089 234.000 C 200.488 234.000,194.214 240.069,187.916 243.842 C 173.231 252.638,168.072 245.122,176.354 227.000 C 176.983 225.625,177.754 224.275,178.067 224.000 C 178.381 223.725,179.349 221.700,180.219 219.500 C 187.314 201.558,205.193 182.526,210.226 187.560 M80.634 203.870 C 82.763 205.998,85.103 209.485,85.835 211.620 C 86.567 213.754,87.826 216.964,88.632 218.754 C 89.438 220.544,90.369 225.847,90.700 230.539 C 91.031 235.230,91.684 239.305,92.151 239.593 C 92.618 239.882,93.000 242.614,93.000 245.665 C 93.000 250.122,93.491 251.795,95.500 254.183 C 96.875 255.817,98.288 258.357,98.638 259.827 C 98.989 261.297,99.687 263.025,100.191 263.666 C 101.126 264.858,101.464 285.869,100.562 286.771 C 99.919 287.415,94.000 284.976,94.000 284.067 C 94.000 283.687,92.606 282.346,90.903 281.086 L 87.805 278.796 84.605 281.898 C 82.735 283.710,80.351 285.000,78.869 285.000 C 75.198 285.000,74.693 286.044,77.116 288.623 C 81.904 293.720,76.849 308.329,71.996 303.418 C 68.050 299.424,67.221 292.423,70.311 289.197 C 73.207 286.175,72.985 285.000,69.520 285.000 C 68.340 285.000,66.081 283.650,64.500 282.000 C 61.000 278.347,60.056 278.292,56.555 281.537 C 47.901 289.557,46.000 288.846,46.000 277.590 C 46.000 272.931,46.450 268.840,47.000 268.500 C 47.550 268.160,48.003 266.896,48.006 265.691 C 48.016 261.517,49.992 256.484,52.987 253.000 C 55.693 249.851,55.996 248.817,55.998 242.692 C 56.001 234.205,57.695 222.462,59.488 218.500 C 60.235 216.850,61.150 214.281,61.521 212.791 C 61.892 211.301,62.827 209.558,63.598 208.919 C 64.369 208.279,65.000 207.214,65.000 206.552 C 65.000 205.182,68.750 201.529,71.000 200.706 C 74.552 199.408,76.965 200.200,80.634 203.870 M350.196 229.298 C 344.401 235.276,347.050 245.000,354.474 245.000 C 361.544 245.000,364.316 234.638,358.702 229.196 C 354.604 225.224,354.139 225.230,350.196 229.298 " stroke="none" fill="#000000" fill-rule="evenodd"></path></g></svg>