<?xml version="1.0" encoding="utf-8"?>
<!-- Generator: Adobe Illustrator 19.0.0, SVG Export Plug-In . SVG Version: 6.00 Build 0)  -->
<svg version="1.1" id="svg" xmlns="http://www.w3.org/2000/svg" xmlns:xlink="http://www.w3.org/1999/xlink" x="0px" y="0px"
	 viewBox="194 50 1000 693" style="enable-background:new 194 50 1000 693;" xml:space="preserve">
<style type="text/css">
	.st0{fill:#535353;}
	.st1{fill:#B2B2B2;}
</style>
<g id="svgg">
	<path id="path0" d="M964.6,298.8c-43,5.6-90.6,39.3-124.9,88.6c-3.1,4.4-13.1,17.9-22.3,29.9c-18.8,24.5-48.7,66.4-62.2,87
		c-16.6,25.4-35,39.2-62.9,47.1l-6.8,1.9l-218.5,0.3l-218.5,0.3v6.3v6.3h215c236.4,0,220.9,0.4,239.3-5.5
		c49.1-15.6,90.7-56.1,151.4-147.2c42.8-64.1,58.8-82.9,79.7-93c20.6-10,20-9.9,112.3-9.9h75.4v-6.3v-6.3l-77.2,0.1
		C1002,298.4,966.1,298.6,964.6,298.8"/>
	<path id="path1" class="st0" d="M869.6,351l-4.9,5.2l5.2-4.9c2.8-2.7,5.2-5,5.2-5.2C875,345.4,874.2,346.2,869.6,351 M780.5,509.4
		l-3.1,3.4l3.4-3.1c3.1-2.9,3.8-3.6,3.1-3.6C783.7,506.1,782.2,507.6,780.5,509.4 M643.5,553.5c4.6,0.2,12.1,0.2,16.6,0
		c4.6-0.2,0.8-0.3-8.3-0.3C642.7,553.2,638.9,553.4,643.5,553.5 M433,567"/>
	<path id="path2" class="st1" d="M666.3,131c-12.1,20.9-34.4,59.5-49.5,85.7c-36.4,63-69.9,120.9-115.2,199.4
		c-20.4,35.4-46.5,80.5-58,100.3l-20.3,35.1l-1.1,2c0.5,0,0.5,0,19.9,0c50.8-0.1,51.3-0.2,54.5-0.1l0.6-1l23.6-40.9
		c21.9-38,48.1-83.2,130-225c17.6-30.4,33.2-57.5,34.7-60.1c1.5-2.6,2.9-4.7,3.2-4.7c0.3,0,27.2,46.4,59.8,103
		c32.6,56.7,59.6,103,59.9,103c0.8,0,22.4-28.3,31.6-41.4c4-5.7,8.3-11.5,9.6-13c1.3-1.4,1.9-2.3,1.3-2c-0.7,0.4-29.6-49-81.4-138.9
		C725.4,155.8,689,93,688.7,93C688.5,93,678.3,110.1,666.3,131 M850.3,420.3c-7.8,11.8-16.5,24.7-19.4,28.7c-2.9,4-5.3,7.8-5.3,8.3
		c0,0.5,20.5,36.4,45.5,79.8c25,43.3,45.7,79.4,46,80.1c0.5,1.2-26.6,1.3-228.6,1.3c-126,0-229.1-0.1-229.1-0.3s6.5-11.6,14.4-25.3
		c7.9-13.8,14.7-26.6,14.7-26.6c-0.4,0-1.6,0-67.2,0c-2.5,0-7,0-3.6,0l-2.8,0l-12.4,21.4c-6.5,11.3-21.4,37.1-33.2,57.4L347.8,682
		l170.5,0.2c93.8,0.1,247.1,0.1,340.6,0L1029,682l-74.8-129.6c-41.2-71.3-77.9-135-81.7-141.5c-3.8-6.6-7.1-11.9-7.5-11.9
		C864.7,399,858.1,408.6,850.3,420.3 M786.3,503.6l-2.6,2.9l2.9-2.6c1.6-1.5,2.9-2.8,2.9-2.9C789.5,500.2,788.8,500.8,786.3,503.6
		 M774.2,515.7l-3.1,3.4l3.4-3.1c3.1-2.9,3.8-3.6,3.1-3.6C777.4,512.4,775.9,513.9,774.2,515.7 M532.3,567c24.1,0.1,63.8,0.1,88.2,0
		c24.4-0.1,4.7-0.2-43.8-0.2S508.2,566.9,532.3,567"/>
</g>
</svg>
